<svg xmlns="http://www.w3.org/2000/svg" xmlns:xlink="http://www.w3.org/1999/xlink" version="1.1" id="Layer_1" x="0px" y="0px" width="70px" height="48px" viewBox="5.5 3.5 70 48" enable-background="new 5.5 3.5 70 48" xml:space="preserve">
<g>
	<g>
		<g>
			<path id="SVGID_1_" d="M24.9,38.1c0.3,0,0.5-0.2,0.6-0.4l7.8-13.4c0.1-0.1,0.2-0.3,0-0.7l-2.4-4.1c-0.2-0.4-0.8-0.6-1.1,0     L19.6,37.2c-0.2,0.3,0,0.9,0.5,0.9H24.9z"/>
		</g>
		<g>
			<g>
				<path id="SVGID_2_" d="M24.9,38.1c0.3,0,0.5-0.2,0.6-0.4l7.8-13.4c0.1-0.1,0.2-0.3,0-0.7l-2.4-4.1c-0.2-0.4-0.8-0.6-1.1,0      L19.6,37.2c-0.2,0.3,0,0.9,0.5,0.9H24.9z"/>
			</g>
			<g>
				<defs>
					<path id="SVGID_4_" d="M24.9,38.1c0.3,0,0.5-0.2,0.6-0.4l7.8-13.4c0.1-0.1,0.2-0.3,0-0.7l-2.4-4.1c-0.2-0.4-0.8-0.6-1.1,0       L19.6,37.2c-0.2,0.3,0,0.9,0.5,0.9H24.9z"/>
				</defs>
				<clipPath id="SVGID_8_">
					<use xlink:href="#SVGID_4_" overflow="visible"/>
				</clipPath>
				<g clip-path="url(#SVGID_8_)">
					<rect x="20.3" y="15.9" width="15.7" height="19.7"/>
				</g>
			</g>
		</g>
	</g>
	<g>
		<g>
			<path id="SVGID_3_" d="M37.9,28.4c0.2,0.3,0.8,0.4,1,0l2.5-4.3c0.1-0.2,0.1-0.3,0-0.6l-3.7-6.4c-0.3-0.3-0.4-0.3-0.6-0.3h-4.8     c-0.5,0-1,0.3-0.7,1L37.9,28.4z"/>
		</g>
		<g>
			<g>
				<path id="SVGID_6_" d="M37.9,28.4c0.2,0.3,0.8,0.4,1,0l2.5-4.3c0.1-0.2,0.1-0.3,0-0.6l-3.7-6.4c-0.3-0.3-0.4-0.3-0.6-0.3h-4.8      c-0.5,0-1,0.3-0.7,1L37.9,28.4z"/>
			</g>
			<g>
				<defs>
					<path id="SVGID_12_" d="M37.9,28.4c0.2,0.3,0.8,0.4,1,0l2.5-4.3c0.1-0.2,0.1-0.3,0-0.6l-3.7-6.4c-0.3-0.3-0.4-0.3-0.6-0.3h-4.8       c-0.5,0-1,0.3-0.7,1L37.9,28.4z"/>
				</defs>
				<clipPath id="SVGID_16_">
					<use xlink:href="#SVGID_12_" overflow="visible"/>
				</clipPath>
				<g clip-path="url(#SVGID_16_)">
					<rect x="30.2" y="15" width="12.4" height="15.5"/>
				</g>
			</g>
		</g>
	</g>
	<g>
		<g>
			<path id="SVGID_5_" d="M41.9,21.5c0.3,0.3,0.9,0.3,1,0l2.2-4c0.1-0.1,0.2-0.8-0.6-0.9h-4.4c-0.3,0-0.9,0.3-0.6,0.9L41.9,21.5z"/>
		</g>
		<g>
			<g>
				<path id="SVGID_10_" d="M41.9,21.5c0.3,0.3,0.9,0.3,1,0l2.2-4c0.1-0.1,0.2-0.8-0.6-0.9h-4.4c-0.3,0-0.9,0.3-0.6,0.9L41.9,21.5z"/>
			</g>
			<g>
				<defs>
					<path id="SVGID_20_" d="M41.9,21.5c0.3,0.3,0.9,0.3,1,0l2.2-4c0.1-0.1,0.2-0.8-0.6-0.9h-4.4c-0.3,0-0.9,0.3-0.6,0.9L41.9,21.5z       "/>
				</defs>
				<clipPath id="SVGID_22_">
					<use xlink:href="#SVGID_20_" overflow="visible"/>
				</clipPath>
				<g clip-path="url(#SVGID_22_)">
					<rect x="38.1" y="14.9" width="8.9" height="9.1"/>
				</g>
			</g>
		</g>
	</g>
	<g>
		<g>
			<path id="SVGID_7_" d="M37.8,33.2c0.3-0.3,0.9-0.3,1,0l2.2,4c0.1,0.1,0.2,0.8-0.6,0.9H36c-0.3,0-0.9-0.3-0.6-0.9L37.8,33.2z"/>
		</g>
		<g>
			<g>
				<path id="SVGID_14_" d="M37.8,33.2c0.3-0.3,0.9-0.3,1,0l2.2,4c0.1,0.1,0.2,0.8-0.6,0.9H36c-0.3,0-0.9-0.3-0.6-0.9L37.8,33.2z"/>
			</g>
			<g>
				<defs>
					<path id="SVGID_24_" d="M37.8,33.2c0.3-0.3,0.9-0.3,1,0l2.2,4c0.1,0.1,0.2,0.8-0.6,0.9H36c-0.3,0-0.9-0.3-0.6-0.9L37.8,33.2z"/>
				</defs>
				<clipPath id="SVGID_26_">
					<use xlink:href="#SVGID_24_" overflow="visible"/>
				</clipPath>
				<g clip-path="url(#SVGID_26_)">
					<rect x="34" y="30.6" width="8.9" height="9.1"/>
				</g>
			</g>
		</g>
	</g>
	<g>
		<g>
			<path id="SVGID_9_" d="M33,38.1c0.2,0,0.3-0.1,0.5-0.3l3.8-6.6c0.1-0.2,0.2-0.3,0-0.6l-2.4-4.2c-0.3-0.4-0.9-0.4-1-0.1l-6.3,10.9     c-0.3,0.4,0.1,1,0.5,1H33z"/>
		</g>
		<g>
			<g>
				<path id="SVGID_18_" d="M33,38.1c0.2,0,0.3-0.1,0.5-0.3l3.8-6.6c0.1-0.2,0.2-0.3,0-0.6l-2.4-4.2c-0.3-0.4-0.9-0.4-1-0.1      l-6.3,10.9c-0.3,0.4,0.1,1,0.5,1H33z"/>
			</g>
			<g>
				<defs>
					<path id="SVGID_28_" d="M33,38.1c0.2,0,0.3-0.1,0.5-0.3l3.8-6.6c0.1-0.2,0.2-0.3,0-0.6l-2.4-4.2c-0.3-0.4-0.9-0.4-1-0.1       l-6.3,10.9c-0.3,0.4,0.1,1,0.5,1H33z"/>
				</defs>
				<clipPath id="SVGID_30_">
					<use xlink:href="#SVGID_28_" overflow="visible"/>
				</clipPath>
				<g clip-path="url(#SVGID_30_)">
					<rect x="28.6" y="24" width="10.9" height="11.6"/>
				</g>
			</g>
		</g>
	</g>
	<g>
		<g>
			<path id="SVGID_11_" d="M55.6,16.6c-0.3,0-0.5,0.3-0.7,0.5l-7.6,13.1c-0.1,0.1-0.2,0.3,0,0.7l2.4,4.1c0.2,0.4,0.8,0.6,1.1,0     L61,17.6c0.3-0.4,0-1-0.5-1H55.6z"/>
		</g>
		<g>
			<g>
				<path id="SVGID_21_" d="M55.6,16.6c-0.3,0-0.5,0.3-0.7,0.5l-7.6,13.1c-0.1,0.1-0.2,0.3,0,0.7l2.4,4.1c0.2,0.4,0.8,0.6,1.1,0      L61,17.6c0.3-0.4,0-1-0.5-1H55.6z"/>
			</g>
			<g>
				<defs>
					<path id="SVGID_31_" d="M55.6,16.6c-0.3,0-0.5,0.3-0.7,0.5l-7.6,13.1c-0.1,0.1-0.2,0.3,0,0.7l2.4,4.1c0.2,0.4,0.8,0.6,1.1,0       L61,17.6c0.3-0.4,0-1-0.5-1H55.6z"/>
				</defs>
				<clipPath id="SVGID_32_">
					<use xlink:href="#SVGID_31_" overflow="visible"/>
				</clipPath>
				<g clip-path="url(#SVGID_32_)">
					<rect x="44.6" y="19" width="15.7" height="19.7"/>
				</g>
			</g>
		</g>
	</g>
	<g>
		<g>
			<path id="SVGID_13_" d="M42.9,26c-0.2-0.3-0.8-0.4-1,0l-2.5,4.3c-0.1,0.2-0.1,0.3,0,0.6l3.9,6.7c0.2,0.3,0.3,0.3,0.6,0.3h4.8     c0.3,0,0.8-0.4,0.5-1L42.9,26z"/>
		</g>
		<g>
			<g>
				<path id="SVGID_23_" d="M42.9,26c-0.2-0.3-0.8-0.4-1,0l-2.5,4.3c-0.1,0.2-0.1,0.3,0,0.6l3.9,6.7c0.2,0.3,0.3,0.3,0.6,0.3h4.8      c0.3,0,0.8-0.4,0.5-1L42.9,26z"/>
			</g>
			<g>
				<defs>
					<path id="SVGID_33_" d="M42.9,26c-0.2-0.3-0.8-0.4-1,0l-2.5,4.3c-0.1,0.2-0.1,0.3,0,0.6l3.9,6.7c0.2,0.3,0.3,0.3,0.6,0.3h4.8       c0.3,0,0.8-0.4,0.5-1L42.9,26z"/>
				</defs>
				<clipPath id="SVGID_34_">
					<use xlink:href="#SVGID_33_" overflow="visible"/>
				</clipPath>
				<g clip-path="url(#SVGID_34_)">
					<rect x="38.3" y="24" width="12.4" height="15.5"/>
				</g>
			</g>
		</g>
	</g>
	<g>
		<g>
			<path id="SVGID_15_" d="M47.7,16.6c-0.2,0.1-0.4,0.1-0.6,0.3l-3.7,6.5c-0.1,0.2-0.2,0.3,0,0.6l2.4,4.2c0.3,0.4,0.9,0.4,1,0.1     l6.3-10.8c0.2-0.3,0-0.9-0.5-1H47.7L47.7,16.6z"/>
		</g>
		<g>
			<g>
				<path id="SVGID_25_" d="M47.7,16.6c-0.2,0.1-0.4,0.1-0.6,0.3l-3.7,6.5c-0.1,0.2-0.2,0.3,0,0.6l2.4,4.2c0.3,0.4,0.9,0.4,1,0.1      l6.3-10.8c0.2-0.3,0-0.9-0.5-1H47.7L47.7,16.6z"/>
			</g>
			<g>
				<defs>
					<path id="SVGID_35_" d="M47.7,16.6c-0.2,0.1-0.4,0.1-0.6,0.3l-3.7,6.5c-0.1,0.2-0.2,0.3,0,0.6l2.4,4.2c0.3,0.4,0.9,0.4,1,0.1       l6.3-10.8c0.2-0.3,0-0.9-0.5-1H47.7L47.7,16.6z"/>
				</defs>
				<clipPath id="SVGID_36_">
					<use xlink:href="#SVGID_35_" overflow="visible"/>
				</clipPath>
				<g clip-path="url(#SVGID_36_)">
					<rect x="41.3" y="19" width="10.9" height="11.6"/>
				</g>
			</g>
		</g>
	</g>
	<g>
		<g>
			<g>
				<path id="SVGID_17_" d="M53.8,33.3c0.3-0.3,0.9-0.3,1,0l2.2,4c0.1,0.1,0.2,0.8-0.6,0.9H52c-0.3,0-0.9-0.3-0.6-0.9L53.8,33.3z"/>
			</g>
			<g>
				<g>
					<path id="SVGID_27_" d="M53.8,33.3c0.3-0.3,0.9-0.3,1,0l2.2,4c0.1,0.1,0.2,0.8-0.6,0.9H52c-0.3,0-0.9-0.3-0.6-0.9L53.8,33.3z"/>
				</g>
			</g>
		</g>
		<g>
			<g>
				<path id="SVGID_19_" d="M58.1,35.8c0.3,0.3,0.9,0.3,1,0l2.2-4c0.1-0.1,0.2-0.8-0.6-0.9h-4.5c-0.3,0-0.9,0.3-0.6,0.9L58.1,35.8z"/>
			</g>
			<g>
				<g>
					<path id="SVGID_29_" d="M58.1,35.8c0.3,0.3,0.9,0.3,1,0l2.2-4c0.1-0.1,0.2-0.8-0.6-0.9h-4.5c-0.3,0-0.9,0.3-0.6,0.9L58.1,35.8z       "/>
				</g>
				<g>
					<defs>
						<path id="SVGID_37_" d="M58.1,35.8c0.3,0.3,0.9,0.3,1,0l2.2-4c0.1-0.1,0.2-0.8-0.6-0.9h-4.5c-0.3,0-0.9,0.3-0.6,0.9L58.1,35.8        z"/>
					</defs>
					<clipPath id="SVGID_38_">
						<use xlink:href="#SVGID_37_" overflow="visible"/>
					</clipPath>
					<g clip-path="url(#SVGID_38_)">
						<rect x="54.3" y="29.2" width="8.9" height="9.1"/>
					</g>
				</g>
			</g>
		</g>
	</g>
</g>
<path d="M75.5,51.5V3.7h-70l0,0v47.7 M72.1,7.4v40.1H8.9V7.4H72.1z"/>
</svg>